<?xml version="1.0" encoding="utf-8"?>
<!-- Generator: Adobe Illustrator 19.0.1, SVG Export Plug-In . SVG Version: 6.00 Build 0)  -->
<svg version="1.1" id="Layer_1" xmlns="http://www.w3.org/2000/svg" xmlns:xlink="http://www.w3.org/1999/xlink" x="0px" y="0px"
	 viewBox="0 0 331.5 102" style="enable-background:new 0 0 331.5 102;" xml:space="preserve">
<style type="text/css">
	.st0{fill:#FFFFFF;}
	.st1{fill:#7F7F7F;}
	.st2{fill:none;stroke:#58595B;stroke-width:0.25;stroke-miterlimit:10;}
</style>
<g>
	<g>
		<path class="st0" d="M146.2,37.8l-8.6,27.8h-5.8l-5.2-17.3c-0.1-0.3-0.2-0.6-0.3-0.9c-0.1-0.3-0.2-0.7-0.3-1
			c-0.1,0.4-0.2,0.7-0.3,1c-0.1,0.3-0.2,0.6-0.3,0.9l-5.3,17.3h-5.8l-8.6-27.8h5.4c0.6,0,1,0.1,1.4,0.4c0.4,0.3,0.6,0.6,0.7,1
			l3.8,14.5c0.1,0.5,0.2,1,0.3,1.5c0.1,0.5,0.2,1.1,0.3,1.7c0.2-1.2,0.5-2.3,0.8-3.2l4.5-14.5c0.1-0.4,0.4-0.7,0.7-1
			c0.4-0.3,0.8-0.4,1.4-0.4h1.9c0.6,0,1,0.1,1.4,0.4c0.3,0.3,0.6,0.6,0.8,1l4.5,14.5c0.3,0.9,0.6,1.9,0.8,3c0.1-0.6,0.2-1.1,0.3-1.6
			c0.1-0.5,0.2-1,0.3-1.4l3.8-14.5c0.1-0.4,0.3-0.7,0.7-1c0.4-0.3,0.8-0.4,1.4-0.4H146.2z"/>
		<path class="st0" d="M150.7,56.8c0.2,1.7,0.7,2.9,1.5,3.6c0.8,0.7,1.9,1.1,3.2,1.1c0.7,0,1.3-0.1,1.8-0.2c0.5-0.2,0.9-0.4,1.3-0.6
			c0.4-0.2,0.7-0.4,1.1-0.6c0.3-0.2,0.7-0.2,1-0.2c0.5,0,0.8,0.2,1.1,0.5l1.7,2.1c-0.6,0.7-1.3,1.3-2,1.7c-0.7,0.4-1.4,0.8-2.2,1
			c-0.7,0.2-1.5,0.4-2.2,0.5c-0.7,0.1-1.5,0.1-2.1,0.1c-1.4,0-2.7-0.2-3.9-0.7c-1.2-0.5-2.3-1.1-3.2-2c-0.9-0.9-1.6-2-2.2-3.3
			c-0.5-1.3-0.8-2.9-0.8-4.6c0-1.3,0.2-2.6,0.7-3.8c0.5-1.2,1.1-2.2,1.9-3.1c0.8-0.9,1.9-1.6,3.1-2.1c1.2-0.5,2.6-0.8,4.1-0.8
			c1.3,0,2.5,0.2,3.6,0.6c1.1,0.4,2,1,2.8,1.8c0.8,0.8,1.4,1.7,1.8,2.9c0.4,1.1,0.7,2.4,0.7,3.8c0,0.4,0,0.8-0.1,1.1
			c0,0.3-0.1,0.5-0.2,0.7c-0.1,0.2-0.2,0.3-0.4,0.3c-0.2,0.1-0.4,0.1-0.7,0.1H150.7z M158.1,53.4c0-0.5-0.1-0.9-0.2-1.4
			c-0.1-0.4-0.3-0.8-0.6-1.2c-0.3-0.4-0.6-0.6-1.1-0.9c-0.4-0.2-1-0.3-1.6-0.3c-1.1,0-2,0.3-2.6,1c-0.6,0.6-1.1,1.6-1.3,2.8H158.1z"
			/>
		<path class="st0" d="M179,50.2c-0.2,0.2-0.3,0.4-0.5,0.5c-0.2,0.1-0.4,0.2-0.7,0.2c-0.3,0-0.6-0.1-0.8-0.2
			c-0.3-0.1-0.6-0.3-0.9-0.4c-0.3-0.1-0.7-0.3-1.1-0.4c-0.4-0.1-0.9-0.2-1.4-0.2c-0.8,0-1.3,0.1-1.7,0.4c-0.4,0.3-0.6,0.7-0.6,1.2
			c0,0.4,0.1,0.7,0.4,0.9c0.3,0.2,0.6,0.5,1,0.6c0.4,0.2,0.9,0.4,1.5,0.5c0.5,0.2,1.1,0.4,1.7,0.6c0.6,0.2,1.1,0.4,1.7,0.7
			c0.5,0.3,1,0.6,1.5,1c0.4,0.4,0.8,0.9,1,1.5c0.3,0.6,0.4,1.3,0.4,2.1c0,1-0.2,1.9-0.5,2.7c-0.4,0.8-0.9,1.5-1.6,2.1
			c-0.7,0.6-1.6,1.1-2.6,1.4c-1,0.3-2.2,0.5-3.6,0.5c-0.7,0-1.4-0.1-2-0.2c-0.7-0.1-1.3-0.3-2-0.5c-0.6-0.2-1.2-0.5-1.7-0.8
			c-0.5-0.3-1-0.6-1.4-1l1.4-2.2c0.2-0.3,0.3-0.5,0.6-0.6c0.2-0.1,0.5-0.2,0.9-0.2c0.3,0,0.7,0.1,0.9,0.2c0.3,0.2,0.6,0.3,0.9,0.5
			c0.3,0.2,0.7,0.3,1.1,0.5c0.4,0.2,1,0.2,1.6,0.2c0.5,0,0.8,0,1.2-0.1c0.3-0.1,0.6-0.2,0.8-0.4c0.2-0.2,0.3-0.4,0.4-0.6
			c0.1-0.2,0.1-0.4,0.1-0.6c0-0.4-0.1-0.7-0.4-1c-0.3-0.3-0.6-0.5-1.1-0.7c-0.4-0.2-0.9-0.4-1.5-0.5c-0.6-0.2-1.1-0.3-1.7-0.5
			c-0.6-0.2-1.1-0.4-1.7-0.7c-0.6-0.3-1-0.6-1.5-1.1c-0.4-0.4-0.8-1-1.1-1.6c-0.3-0.6-0.4-1.4-0.4-2.3c0-0.8,0.2-1.6,0.5-2.4
			c0.3-0.8,0.8-1.4,1.5-2c0.6-0.6,1.5-1,2.4-1.4c1-0.3,2.1-0.5,3.4-0.5c0.7,0,1.4,0.1,2.1,0.2c0.7,0.1,1.3,0.3,1.9,0.5
			c0.6,0.2,1.1,0.5,1.6,0.8c0.5,0.3,0.9,0.7,1.3,1L179,50.2z"/>
		<path class="st0" d="M190.5,66c-0.9,0-1.8-0.1-2.5-0.4c-0.7-0.3-1.3-0.7-1.8-1.2c-0.5-0.5-0.9-1.1-1.1-1.8
			c-0.3-0.7-0.4-1.5-0.4-2.4V49.9H183c-0.3,0-0.6-0.1-0.8-0.3c-0.2-0.2-0.3-0.5-0.3-0.9v-2.3l3.2-0.6l1.2-4.8
			c0.2-0.6,0.6-0.9,1.3-0.9h3.1v5.8h4.9v4.1h-4.9v9.8c0,0.5,0.1,0.8,0.3,1.1c0.2,0.3,0.5,0.4,1,0.4c0.2,0,0.4,0,0.5-0.1
			c0.1,0,0.3-0.1,0.4-0.2c0.1-0.1,0.2-0.1,0.3-0.2c0.1,0,0.2-0.1,0.3-0.1c0.2,0,0.3,0,0.4,0.1c0.1,0.1,0.2,0.2,0.3,0.4l1.8,2.8
			c-0.8,0.6-1.6,1-2.6,1.3C192.5,65.8,191.5,66,190.5,66z"/>
		<path class="st0" d="M202.8,56.8c0.2,1.7,0.7,2.9,1.5,3.6c0.8,0.7,1.9,1.1,3.2,1.1c0.7,0,1.3-0.1,1.8-0.2c0.5-0.2,0.9-0.4,1.3-0.6
			c0.4-0.2,0.7-0.4,1.1-0.6c0.3-0.2,0.7-0.2,1-0.2c0.5,0,0.8,0.2,1.1,0.5l1.7,2.1c-0.6,0.7-1.3,1.3-2,1.7c-0.7,0.4-1.4,0.8-2.2,1
			c-0.7,0.2-1.5,0.4-2.2,0.5c-0.7,0.1-1.5,0.1-2.1,0.1c-1.4,0-2.7-0.2-3.9-0.7c-1.2-0.5-2.3-1.1-3.2-2c-0.9-0.9-1.6-2-2.2-3.3
			c-0.5-1.3-0.8-2.9-0.8-4.6c0-1.3,0.2-2.6,0.7-3.8c0.5-1.2,1.1-2.2,1.9-3.1c0.8-0.9,1.9-1.6,3.1-2.1c1.2-0.5,2.6-0.8,4.1-0.8
			c1.3,0,2.5,0.2,3.6,0.6c1.1,0.4,2,1,2.8,1.8c0.8,0.8,1.4,1.7,1.8,2.9c0.4,1.1,0.7,2.4,0.7,3.8c0,0.4,0,0.8-0.1,1.1
			c0,0.3-0.1,0.5-0.2,0.7c-0.1,0.2-0.2,0.3-0.4,0.3c-0.2,0.1-0.4,0.1-0.7,0.1H202.8z M210.2,53.4c0-0.5-0.1-0.9-0.2-1.4
			c-0.1-0.4-0.3-0.8-0.6-1.2c-0.3-0.4-0.6-0.6-1.1-0.9c-0.4-0.2-1-0.3-1.6-0.3c-1.1,0-2,0.3-2.6,1c-0.6,0.6-1.1,1.6-1.3,2.8H210.2z"
			/>
		<path class="st0" d="M224.1,48.9c0.6-1.1,1.3-1.9,2.1-2.5c0.8-0.6,1.7-0.9,2.7-0.9c0.9,0,1.6,0.2,2.2,0.6l-0.4,4.4
			c-0.1,0.3-0.2,0.5-0.3,0.6c-0.1,0.1-0.3,0.2-0.6,0.2c-0.1,0-0.2,0-0.4,0c-0.2,0-0.3,0-0.5,0c-0.2,0-0.4,0-0.5-0.1
			c-0.2,0-0.4,0-0.5,0c-0.9,0-1.6,0.2-2.1,0.7c-0.5,0.5-1,1.1-1.3,1.9v12h-5.9V45.8h3.5c0.3,0,0.5,0,0.7,0.1
			c0.2,0.1,0.4,0.1,0.5,0.2c0.1,0.1,0.2,0.3,0.3,0.4c0.1,0.2,0.1,0.4,0.2,0.6L224.1,48.9z"/>
		<path class="st0" d="M247.3,50.5c-0.2,0.2-0.3,0.4-0.5,0.5c-0.2,0.1-0.4,0.2-0.7,0.2c-0.3,0-0.6-0.1-0.8-0.2
			c-0.2-0.1-0.5-0.3-0.8-0.5c-0.3-0.2-0.6-0.3-1-0.5c-0.4-0.1-0.9-0.2-1.5-0.2c-0.7,0-1.4,0.1-1.9,0.4c-0.5,0.3-1,0.6-1.3,1.1
			c-0.3,0.5-0.6,1.1-0.8,1.8c-0.2,0.7-0.2,1.5-0.2,2.4c0,1.9,0.4,3.4,1.1,4.4c0.7,1,1.7,1.5,3,1.5c0.7,0,1.2-0.1,1.6-0.3
			c0.4-0.2,0.7-0.4,1-0.6c0.3-0.2,0.5-0.4,0.8-0.6c0.2-0.2,0.5-0.3,0.9-0.3c0.5,0,0.8,0.2,1.1,0.5l1.7,2.1c-0.6,0.7-1.3,1.3-1.9,1.7
			c-0.7,0.4-1.4,0.8-2.1,1s-1.4,0.4-2.1,0.5c-0.7,0.1-1.4,0.1-2.1,0.1c-1.2,0-2.4-0.2-3.5-0.7c-1.1-0.5-2.1-1.1-2.9-2
			c-0.8-0.9-1.5-1.9-2-3.2c-0.5-1.3-0.7-2.7-0.7-4.4c0-1.4,0.2-2.8,0.6-4c0.4-1.2,1.1-2.3,1.9-3.2c0.8-0.9,1.9-1.6,3.1-2.1
			c1.2-0.5,2.7-0.8,4.3-0.8c1.6,0,2.9,0.2,4.1,0.7c1.2,0.5,2.2,1.2,3.2,2.2L247.3,50.5z"/>
		<path class="st0" d="M260.1,45.5c1.5,0,2.9,0.2,4.1,0.7c1.2,0.5,2.3,1.1,3.2,2c0.9,0.9,1.6,1.9,2.1,3.2c0.5,1.3,0.7,2.7,0.7,4.2
			c0,1.6-0.2,3-0.7,4.3c-0.5,1.3-1.2,2.3-2.1,3.2c-0.9,0.9-1.9,1.6-3.2,2s-2.6,0.7-4.1,0.7c-1.5,0-2.9-0.2-4.1-0.7
			c-1.2-0.5-2.3-1.2-3.2-2c-0.9-0.9-1.6-2-2.1-3.2c-0.5-1.3-0.7-2.7-0.7-4.3c0-1.6,0.2-3,0.7-4.2c0.5-1.3,1.2-2.3,2.1-3.2
			c0.9-0.9,2-1.6,3.2-2C257.2,45.8,258.6,45.5,260.1,45.5z M260.1,61.6c1.4,0,2.4-0.5,3-1.4c0.6-1,1-2.4,1-4.4c0-2-0.3-3.4-1-4.4
			c-0.6-1-1.6-1.4-3-1.4c-1.4,0-2.4,0.5-3.1,1.4c-0.6,1-1,2.4-1,4.4c0,2,0.3,3.4,1,4.4C257.7,61.1,258.7,61.6,260.1,61.6z"/>
		<path class="st0" d="M273.2,65.7V45.8h3.7c0.7,0,1.2,0.3,1.5,1l0.3,1.1c0.3-0.3,0.7-0.7,1-0.9c0.4-0.3,0.7-0.5,1.2-0.7
			c0.4-0.2,0.9-0.4,1.3-0.5c0.5-0.1,1-0.2,1.6-0.2c1.2,0,2.2,0.3,3,0.9c0.8,0.6,1.4,1.4,1.8,2.5c0.3-0.6,0.7-1.1,1.2-1.6
			c0.5-0.4,1-0.8,1.5-1.1c0.6-0.3,1.1-0.5,1.8-0.6c0.6-0.1,1.2-0.2,1.8-0.2c1.1,0,2.1,0.2,3,0.5c0.9,0.3,1.6,0.8,2.2,1.5
			c0.6,0.6,1,1.4,1.3,2.4c0.3,0.9,0.5,2,0.5,3.2v12.6H296V53.1c0-2.1-0.9-3.1-2.6-3.1c-0.8,0-1.5,0.3-2,0.8
			c-0.5,0.5-0.8,1.3-0.8,2.3v12.6h-5.9V53.1c0-1.1-0.2-1.9-0.7-2.4c-0.4-0.5-1.1-0.7-2-0.7c-0.5,0-1,0.1-1.5,0.4
			c-0.5,0.2-0.9,0.6-1.3,1v14.3H273.2z"/>
	</g>
	<g>
		<polygon class="st0" points="69.2,27.2 85.9,27.2 94,43.5 84.2,57.6 		"/>
		<polygon class="st0" points="40.4,27.2 23.6,27.2 48.1,76.6 57.9,62.5 		"/>
		<polygon class="st0" points="23.6,27.2 35.9,34.9 49.4,61.6 48.1,76.6 		"/>
		<polygon class="st0" points="35.9,34.9 40.4,27.2 23.6,27.2 		"/>
		<polygon class="st0" points="48.1,76.6 49.4,61.6 57.9,62.5 		"/>
		<polygon class="st0" points="63.3,27.2 46.5,27.2 71,76.6 80.8,62.5 		"/>
		<polygon class="st0" points="46.5,27.2 58.8,34.9 72.3,61.6 71,76.6 		"/>
		<polygon class="st0" points="58.8,34.9 63.3,27.2 46.5,27.2 		"/>
		<polygon class="st0" points="71,76.6 72.3,61.6 80.8,62.5 		"/>
		<polygon class="st0" points="69.2,27.2 81.9,34.9 86.1,43.5 84.2,57.6 		"/>
		<polygon class="st0" points="69.2,27.2 81.9,34.9 85.9,27.2 		"/>
		<polygon class="st0" points="84.2,57.6 86.1,43.5 94,43.5 		"/>
	</g>
</g>
<g>
	<g>
		<path class="st1" d="M14.1-54.1l-3.1,10H9.7l-2.5-7.7c0-0.1,0-0.2-0.1-0.2c0-0.1,0-0.2-0.1-0.3C7-52.1,7-52,7-52
			c0,0.1,0,0.2-0.1,0.2l-2.6,7.7H3.1L0-54.1h1.1c0.1,0,0.2,0,0.3,0.1c0.1,0.1,0.1,0.1,0.2,0.2l2.1,7c0,0.1,0.1,0.3,0.1,0.4
			c0,0.1,0.1,0.3,0.1,0.5c0-0.2,0.1-0.3,0.1-0.5c0-0.1,0.1-0.3,0.1-0.4l2.4-7c0-0.1,0.1-0.2,0.2-0.2c0.1-0.1,0.2-0.1,0.3-0.1h0.4
			c0.1,0,0.2,0,0.3,0.1c0.1,0.1,0.1,0.1,0.2,0.2l2.4,7c0,0.1,0.1,0.3,0.1,0.4c0,0.1,0.1,0.3,0.1,0.4c0-0.2,0-0.3,0.1-0.4
			c0-0.1,0.1-0.3,0.1-0.4l2.1-7c0-0.1,0.1-0.2,0.2-0.2c0.1-0.1,0.2-0.1,0.3-0.1H14.1z"/>
		<path class="st1" d="M20.2-45.1c-0.2,0.2-0.3,0.3-0.6,0.5c-0.2,0.1-0.4,0.3-0.7,0.3c-0.2,0.1-0.5,0.2-0.8,0.2
			C18-44,17.7-44,17.5-44c-0.5,0-0.9-0.1-1.4-0.2c-0.4-0.2-0.8-0.4-1.1-0.7c-0.3-0.3-0.5-0.7-0.7-1.2c-0.2-0.5-0.3-1-0.3-1.6
			c0-0.5,0.1-1,0.2-1.4c0.2-0.4,0.4-0.8,0.7-1.1c0.3-0.3,0.6-0.6,1-0.7c0.4-0.2,0.9-0.3,1.4-0.3c0.4,0,0.8,0.1,1.2,0.2
			c0.4,0.1,0.7,0.3,0.9,0.6c0.3,0.3,0.5,0.6,0.6,1c0.1,0.4,0.2,0.8,0.2,1.3c0,0.2,0,0.3-0.1,0.4c0,0.1-0.1,0.1-0.2,0.1h-4.7
			c0,0.4,0.1,0.8,0.2,1.2c0.1,0.3,0.3,0.6,0.5,0.8c0.2,0.2,0.4,0.4,0.7,0.5c0.3,0.1,0.6,0.2,0.9,0.2c0.3,0,0.6,0,0.8-0.1
			c0.2-0.1,0.4-0.2,0.6-0.2c0.2-0.1,0.3-0.2,0.4-0.2c0.1-0.1,0.2-0.1,0.3-0.1c0.1,0,0.2,0,0.2,0.1L20.2-45.1z M19.2-48.4
			c0-0.3,0-0.6-0.1-0.8c-0.1-0.2-0.2-0.4-0.4-0.6c-0.2-0.2-0.3-0.3-0.6-0.4s-0.5-0.1-0.8-0.1c-0.6,0-1.1,0.2-1.4,0.5
			c-0.3,0.3-0.6,0.8-0.6,1.4H19.2z"/>
		<path class="st1" d="M26-50c-0.1,0.1-0.1,0.2-0.3,0.2c-0.1,0-0.1,0-0.2-0.1c-0.1-0.1-0.2-0.1-0.3-0.2c-0.1-0.1-0.3-0.1-0.5-0.2
			c-0.2-0.1-0.4-0.1-0.6-0.1c-0.2,0-0.4,0-0.6,0.1c-0.2,0.1-0.3,0.1-0.4,0.2c-0.1,0.1-0.2,0.2-0.3,0.3c-0.1,0.1-0.1,0.3-0.1,0.4
			c0,0.2,0.1,0.3,0.2,0.5c0.1,0.1,0.2,0.2,0.4,0.3c0.2,0.1,0.4,0.2,0.6,0.2c0.2,0.1,0.4,0.1,0.7,0.2c0.2,0.1,0.5,0.2,0.7,0.3
			c0.2,0.1,0.4,0.2,0.6,0.4c0.2,0.1,0.3,0.3,0.4,0.5c0.1,0.2,0.2,0.4,0.2,0.7c0,0.3-0.1,0.6-0.2,0.9c-0.1,0.3-0.3,0.5-0.5,0.7
			c-0.2,0.2-0.5,0.4-0.8,0.5C24.5-44,24.2-44,23.7-44c-0.5,0-0.9-0.1-1.3-0.2c-0.4-0.2-0.7-0.4-1-0.6l0.3-0.5c0-0.1,0.1-0.1,0.1-0.1
			c0.1,0,0.1,0,0.2,0c0.1,0,0.2,0,0.3,0.1c0.1,0.1,0.2,0.1,0.3,0.2c0.1,0.1,0.3,0.2,0.5,0.2c0.2,0.1,0.4,0.1,0.7,0.1
			c0.2,0,0.5,0,0.6-0.1c0.2-0.1,0.3-0.1,0.5-0.3c0.1-0.1,0.2-0.2,0.3-0.4c0.1-0.1,0.1-0.3,0.1-0.4c0-0.2-0.1-0.4-0.2-0.5
			c-0.1-0.1-0.2-0.2-0.4-0.3c-0.2-0.1-0.4-0.2-0.6-0.2c-0.2-0.1-0.4-0.1-0.7-0.2c-0.2-0.1-0.5-0.2-0.7-0.3c-0.2-0.1-0.4-0.2-0.6-0.4
			c-0.2-0.1-0.3-0.3-0.4-0.5c-0.1-0.2-0.2-0.5-0.2-0.8c0-0.3,0.1-0.5,0.2-0.8c0.1-0.2,0.3-0.5,0.5-0.7c0.2-0.2,0.5-0.3,0.8-0.5
			c0.3-0.1,0.7-0.2,1.1-0.2c0.5,0,0.9,0.1,1.3,0.2c0.4,0.1,0.7,0.3,1,0.6L26-50z"/>
		<path class="st1" d="M30.1-44c-0.6,0-1-0.2-1.3-0.5c-0.3-0.3-0.5-0.8-0.5-1.4v-4.3h-0.9c-0.1,0-0.1,0-0.2-0.1
			c-0.1,0-0.1-0.1-0.1-0.2v-0.5l1.2-0.1l0.3-2.2c0-0.1,0-0.1,0.1-0.2c0,0,0.1-0.1,0.2-0.1h0.6v2.4h2.1v0.9h-2.1v4.3
			c0,0.3,0.1,0.5,0.2,0.7C30-45,30.2-45,30.4-45c0.1,0,0.2,0,0.3-0.1c0.1,0,0.2-0.1,0.2-0.1c0.1,0,0.1-0.1,0.2-0.1
			c0,0,0.1-0.1,0.1-0.1c0.1,0,0.1,0,0.2,0.1l0.4,0.6c-0.2,0.2-0.5,0.4-0.8,0.5C30.7-44,30.4-44,30.1-44z"/>
		<path class="st1" d="M38.7-45.1c-0.2,0.2-0.3,0.3-0.6,0.5c-0.2,0.1-0.4,0.3-0.7,0.3c-0.2,0.1-0.5,0.2-0.8,0.2
			c-0.3,0-0.5,0.1-0.8,0.1c-0.5,0-0.9-0.1-1.4-0.2c-0.4-0.2-0.8-0.4-1.1-0.7c-0.3-0.3-0.5-0.7-0.7-1.2c-0.2-0.5-0.3-1-0.3-1.6
			c0-0.5,0.1-1,0.2-1.4c0.2-0.4,0.4-0.8,0.7-1.1c0.3-0.3,0.6-0.6,1-0.7c0.4-0.2,0.9-0.3,1.4-0.3c0.4,0,0.8,0.1,1.2,0.2
			c0.4,0.1,0.7,0.3,0.9,0.6c0.3,0.3,0.5,0.6,0.6,1c0.1,0.4,0.2,0.8,0.2,1.3c0,0.2,0,0.3-0.1,0.4c0,0.1-0.1,0.1-0.2,0.1h-4.7
			c0,0.4,0.1,0.8,0.2,1.2c0.1,0.3,0.3,0.6,0.5,0.8c0.2,0.2,0.4,0.4,0.7,0.5c0.3,0.1,0.6,0.2,0.9,0.2c0.3,0,0.6,0,0.8-0.1
			c0.2-0.1,0.4-0.2,0.6-0.2c0.2-0.1,0.3-0.2,0.4-0.2c0.1-0.1,0.2-0.1,0.3-0.1c0.1,0,0.2,0,0.2,0.1L38.7-45.1z M37.7-48.4
			c0-0.3,0-0.6-0.1-0.8c-0.1-0.2-0.2-0.4-0.4-0.6c-0.2-0.2-0.3-0.3-0.6-0.4c-0.2-0.1-0.5-0.1-0.8-0.1c-0.6,0-1.1,0.2-1.4,0.5
			c-0.3,0.3-0.6,0.8-0.6,1.4H37.7z"/>
		<path class="st1" d="M41.5-49.7c0.2-0.5,0.5-0.9,0.8-1.1c0.3-0.3,0.7-0.4,1.2-0.4c0.1,0,0.3,0,0.4,0c0.1,0,0.3,0.1,0.4,0.2
			l-0.1,0.9c0,0.1-0.1,0.2-0.2,0.2c-0.1,0-0.2,0-0.3,0c-0.1,0-0.3,0-0.4,0c-0.2,0-0.4,0-0.6,0.1c-0.2,0.1-0.3,0.2-0.5,0.3
			c-0.1,0.1-0.3,0.3-0.4,0.5c-0.1,0.2-0.2,0.4-0.3,0.6v4.5h-1.3v-7.1H41c0.1,0,0.2,0,0.3,0.1c0.1,0.1,0.1,0.1,0.1,0.3L41.5-49.7z"/>
		<path class="st1" d="M50.1-49.9c0,0.1-0.1,0.1-0.1,0.1c0,0-0.1,0-0.2,0c-0.1,0-0.1,0-0.2-0.1c-0.1-0.1-0.2-0.1-0.3-0.2
			c-0.1-0.1-0.3-0.1-0.5-0.2c-0.2-0.1-0.4-0.1-0.7-0.1c-0.4,0-0.7,0.1-0.9,0.2c-0.3,0.1-0.5,0.3-0.7,0.5s-0.3,0.5-0.4,0.8
			C46-48.4,46-48,46-47.6c0,0.4,0,0.8,0.1,1.1c0.1,0.3,0.2,0.6,0.4,0.8c0.2,0.2,0.4,0.4,0.7,0.5c0.3,0.1,0.5,0.2,0.9,0.2
			c0.3,0,0.6,0,0.7-0.1c0.2-0.1,0.4-0.2,0.5-0.2c0.1-0.1,0.2-0.2,0.3-0.2c0.1-0.1,0.2-0.1,0.3-0.1c0.1,0,0.2,0,0.2,0.1l0.4,0.5
			c-0.2,0.2-0.3,0.4-0.5,0.5c-0.2,0.1-0.4,0.2-0.6,0.3c-0.2,0.1-0.5,0.2-0.7,0.2c-0.2,0-0.5,0.1-0.8,0.1c-0.4,0-0.9-0.1-1.2-0.2
			c-0.4-0.2-0.7-0.4-1-0.7c-0.3-0.3-0.5-0.7-0.7-1.1c-0.2-0.5-0.2-1-0.2-1.5c0-0.5,0.1-1,0.2-1.5c0.1-0.4,0.4-0.8,0.6-1.2
			c0.3-0.3,0.6-0.6,1-0.8c0.4-0.2,0.9-0.3,1.4-0.3c0.5,0,0.9,0.1,1.3,0.2c0.4,0.2,0.7,0.4,1,0.7L50.1-49.9z"/>
		<path class="st1" d="M54.7-51.3c0.5,0,1,0.1,1.4,0.3c0.4,0.2,0.8,0.4,1.1,0.7c0.3,0.3,0.5,0.7,0.7,1.2c0.2,0.5,0.2,1,0.2,1.5
			c0,0.6-0.1,1.1-0.2,1.5c-0.2,0.4-0.4,0.8-0.7,1.1c-0.3,0.3-0.6,0.6-1.1,0.7c-0.4,0.2-0.9,0.3-1.4,0.3c-0.5,0-1-0.1-1.4-0.3
			c-0.4-0.2-0.8-0.4-1.1-0.7c-0.3-0.3-0.5-0.7-0.7-1.1c-0.2-0.4-0.2-1-0.2-1.5c0-0.6,0.1-1.1,0.2-1.5c0.2-0.5,0.4-0.8,0.7-1.2
			c0.3-0.3,0.6-0.6,1.1-0.7C53.7-51.2,54.1-51.3,54.7-51.3z M54.7-44.9c0.7,0,1.2-0.2,1.6-0.7c0.3-0.5,0.5-1.1,0.5-2
			c0-0.8-0.2-1.5-0.5-2c-0.3-0.5-0.9-0.7-1.6-0.7c-0.4,0-0.7,0.1-0.9,0.2c-0.3,0.1-0.5,0.3-0.7,0.5c-0.2,0.2-0.3,0.5-0.4,0.8
			c-0.1,0.3-0.1,0.7-0.1,1.1c0,0.8,0.2,1.5,0.5,2C53.4-45.2,54-44.9,54.7-44.9z"/>
		<path class="st1" d="M59.6-44.1v-7.1h0.7c0.2,0,0.3,0.1,0.3,0.3l0.1,0.7c0.3-0.3,0.6-0.6,0.9-0.8c0.3-0.2,0.7-0.3,1.1-0.3
			c0.5,0,0.9,0.1,1.2,0.4c0.3,0.3,0.5,0.6,0.6,1.1c0.1-0.3,0.2-0.5,0.4-0.7c0.2-0.2,0.3-0.3,0.5-0.5c0.2-0.1,0.4-0.2,0.6-0.3
			c0.2-0.1,0.5-0.1,0.7-0.1c0.4,0,0.7,0.1,1,0.2c0.3,0.1,0.5,0.3,0.7,0.5c0.2,0.2,0.4,0.5,0.5,0.8c0.1,0.3,0.2,0.7,0.2,1.1v4.5H68
			v-4.5c0-0.6-0.1-1-0.4-1.3c-0.2-0.3-0.6-0.4-1-0.4c-0.2,0-0.4,0-0.6,0.1c-0.2,0.1-0.3,0.2-0.5,0.3c-0.1,0.1-0.3,0.3-0.3,0.5
			c-0.1,0.2-0.1,0.5-0.1,0.7v4.5h-1.3v-4.5c0-0.6-0.1-1-0.3-1.3c-0.2-0.3-0.6-0.4-1-0.4c-0.3,0-0.6,0.1-0.9,0.2
			c-0.3,0.2-0.5,0.4-0.7,0.7v5.3H59.6z"/>
		<path class="st1" d="M76-54.4v10.3h-1.2v-10.3H76z"/>
		<path class="st1" d="M81-51.3c0.5,0,1,0.1,1.4,0.3c0.4,0.2,0.8,0.4,1.1,0.7c0.3,0.3,0.5,0.7,0.7,1.2c0.2,0.5,0.2,1,0.2,1.5
			c0,0.6-0.1,1.1-0.2,1.5c-0.2,0.4-0.4,0.8-0.7,1.1c-0.3,0.3-0.6,0.6-1.1,0.7C82-44.1,81.5-44,81-44c-0.5,0-1-0.1-1.4-0.3
			c-0.4-0.2-0.8-0.4-1.1-0.7c-0.3-0.3-0.5-0.7-0.7-1.1c-0.2-0.4-0.2-1-0.2-1.5c0-0.6,0.1-1.1,0.2-1.5c0.2-0.5,0.4-0.8,0.7-1.2
			c0.3-0.3,0.6-0.6,1.1-0.7C80-51.2,80.5-51.3,81-51.3z M81-44.9c0.7,0,1.2-0.2,1.6-0.7c0.3-0.5,0.5-1.1,0.5-2c0-0.8-0.2-1.5-0.5-2
			c-0.3-0.5-0.9-0.7-1.6-0.7c-0.4,0-0.7,0.1-0.9,0.2c-0.3,0.1-0.5,0.3-0.7,0.5c-0.2,0.2-0.3,0.5-0.4,0.8s-0.1,0.7-0.1,1.1
			c0,0.8,0.2,1.5,0.5,2C79.8-45.2,80.3-44.9,81-44.9z"/>
		<path class="st1" d="M91.9-50.9v0.5c0,0.2-0.1,0.3-0.3,0.3L90.8-50c0.2,0.3,0.2,0.6,0.2,1c0,0.3-0.1,0.7-0.2,0.9
			c-0.1,0.3-0.3,0.5-0.5,0.7c-0.2,0.2-0.5,0.4-0.8,0.5c-0.3,0.1-0.7,0.2-1.1,0.2c-0.3,0-0.6,0-0.9-0.1c-0.1,0.1-0.3,0.2-0.3,0.3
			C87-46.4,87-46.3,87-46.2c0,0.2,0.1,0.3,0.2,0.4c0.1,0.1,0.3,0.1,0.5,0.2c0.2,0,0.5,0.1,0.8,0.1c0.3,0,0.6,0,0.9,0
			c0.3,0,0.6,0.1,0.9,0.1c0.3,0.1,0.5,0.1,0.8,0.3c0.2,0.1,0.4,0.3,0.5,0.5c0.1,0.2,0.2,0.5,0.2,0.8c0,0.3-0.1,0.6-0.2,0.9
			c-0.2,0.3-0.4,0.5-0.7,0.8c-0.3,0.2-0.6,0.4-1,0.5c-0.4,0.1-0.9,0.2-1.4,0.2c-0.5,0-1-0.1-1.4-0.2c-0.4-0.1-0.7-0.2-1-0.4
			c-0.3-0.2-0.4-0.4-0.6-0.6c-0.1-0.2-0.2-0.5-0.2-0.7c0-0.4,0.1-0.6,0.3-0.9c0.2-0.2,0.5-0.4,0.9-0.6c-0.2-0.1-0.4-0.2-0.5-0.4
			c-0.1-0.2-0.2-0.4-0.2-0.6c0-0.1,0-0.2,0.1-0.3c0-0.1,0.1-0.2,0.2-0.3c0.1-0.1,0.2-0.2,0.3-0.3c0.1-0.1,0.2-0.2,0.4-0.3
			c-0.3-0.2-0.6-0.5-0.8-0.8s-0.3-0.7-0.3-1.1c0-0.3,0.1-0.7,0.2-0.9c0.1-0.3,0.3-0.5,0.6-0.7c0.2-0.2,0.5-0.4,0.9-0.5
			c0.3-0.1,0.7-0.2,1.1-0.2c0.3,0,0.6,0,0.9,0.1c0.3,0.1,0.5,0.2,0.7,0.3H91.9z M90.6-43.7c0-0.2,0-0.3-0.1-0.4
			c-0.1-0.1-0.2-0.2-0.4-0.3c-0.2-0.1-0.4-0.1-0.6-0.1c-0.2,0-0.5,0-0.7-0.1c-0.2,0-0.5,0-0.7,0c-0.3,0-0.5,0-0.7-0.1
			c-0.3,0.1-0.5,0.3-0.6,0.5c-0.2,0.2-0.2,0.4-0.2,0.6c0,0.2,0,0.3,0.1,0.4s0.2,0.3,0.4,0.4c0.2,0.1,0.4,0.2,0.6,0.2
			c0.3,0.1,0.6,0.1,0.9,0.1c0.3,0,0.6,0,0.9-0.1c0.3-0.1,0.5-0.1,0.7-0.3c0.2-0.1,0.3-0.2,0.4-0.4C90.6-43.3,90.6-43.5,90.6-43.7z
			 M88.4-47.5c0.3,0,0.5,0,0.7-0.1c0.2-0.1,0.4-0.2,0.5-0.3c0.1-0.1,0.2-0.3,0.3-0.5c0.1-0.2,0.1-0.4,0.1-0.6c0-0.4-0.1-0.8-0.4-1
			c-0.3-0.3-0.6-0.4-1.1-0.4c-0.5,0-0.9,0.1-1.2,0.4c-0.3,0.3-0.4,0.6-0.4,1c0,0.2,0,0.4,0.1,0.6c0.1,0.2,0.2,0.3,0.3,0.5
			c0.1,0.1,0.3,0.2,0.5,0.3C87.9-47.6,88.1-47.5,88.4-47.5z"/>
		<path class="st1" d="M96.1-51.3c0.5,0,1,0.1,1.4,0.3c0.4,0.2,0.8,0.4,1.1,0.7c0.3,0.3,0.5,0.7,0.7,1.2c0.2,0.5,0.2,1,0.2,1.5
			c0,0.6-0.1,1.1-0.2,1.5c-0.2,0.4-0.4,0.8-0.7,1.1c-0.3,0.3-0.6,0.6-1.1,0.7c-0.4,0.2-0.9,0.3-1.4,0.3c-0.5,0-1-0.1-1.4-0.3
			c-0.4-0.2-0.8-0.4-1.1-0.7c-0.3-0.3-0.5-0.7-0.7-1.1c-0.2-0.4-0.2-1-0.2-1.5c0-0.6,0.1-1.1,0.2-1.5c0.2-0.5,0.4-0.8,0.7-1.2
			c0.3-0.3,0.6-0.6,1.1-0.7C95.1-51.2,95.6-51.3,96.1-51.3z M96.1-44.9c0.7,0,1.2-0.2,1.6-0.7c0.3-0.5,0.5-1.1,0.5-2
			c0-0.8-0.2-1.5-0.5-2c-0.3-0.5-0.9-0.7-1.6-0.7c-0.4,0-0.7,0.1-0.9,0.2c-0.3,0.1-0.5,0.3-0.7,0.5c-0.2,0.2-0.3,0.5-0.4,0.8
			C94-48.4,94-48,94-47.6c0,0.8,0.2,1.5,0.5,2C94.8-45.2,95.4-44.9,96.1-44.9z"/>
	</g>
	<line class="st2" x1="-8.9" y1="-34.3" x2="106.5" y2="-34.3"/>
</g>
<g>
	<path class="st1" d="M139.2,111.6v7h-0.3v-3.5h-4.7v3.5h-0.3v-7h0.3v3.4h4.7v-3.4H139.2z"/>
	<path class="st1" d="M142.9,113.6c0.4,0,0.7,0.1,0.9,0.2c0.3,0.1,0.5,0.3,0.7,0.5c0.2,0.2,0.3,0.5,0.4,0.8c0.1,0.3,0.1,0.7,0.1,1
		s0,0.7-0.1,1c-0.1,0.3-0.2,0.6-0.4,0.8c-0.2,0.2-0.4,0.4-0.7,0.5c-0.3,0.1-0.6,0.2-0.9,0.2s-0.7-0.1-0.9-0.2
		c-0.3-0.1-0.5-0.3-0.7-0.5c-0.2-0.2-0.3-0.5-0.4-0.8c-0.1-0.3-0.1-0.7-0.1-1s0-0.7,0.1-1c0.1-0.3,0.2-0.6,0.4-0.8
		c0.2-0.2,0.4-0.4,0.7-0.5C142.2,113.7,142.5,113.6,142.9,113.6z M142.9,118.5c0.3,0,0.6-0.1,0.8-0.2c0.2-0.1,0.4-0.3,0.6-0.5
		c0.2-0.2,0.3-0.4,0.4-0.7c0.1-0.3,0.1-0.6,0.1-0.9c0-0.4,0-0.7-0.1-1c-0.1-0.3-0.2-0.5-0.4-0.7c-0.2-0.2-0.4-0.4-0.6-0.5
		c-0.2-0.1-0.5-0.2-0.8-0.2c-0.3,0-0.6,0.1-0.8,0.2c-0.2,0.1-0.4,0.3-0.6,0.5c-0.2,0.2-0.3,0.5-0.4,0.7c-0.1,0.3-0.1,0.6-0.1,1
		c0,0.3,0,0.7,0.1,0.9c0.1,0.3,0.2,0.5,0.4,0.7c0.2,0.2,0.4,0.4,0.6,0.5C142.3,118.4,142.6,118.5,142.9,118.5z"/>
	<path class="st1" d="M146.8,115c0.1-0.2,0.2-0.4,0.3-0.6c0.1-0.2,0.2-0.3,0.3-0.4c0.1-0.1,0.3-0.2,0.4-0.3c0.2-0.1,0.4-0.1,0.6-0.1
		c0.1,0,0.2,0,0.3,0c0.1,0,0.2,0,0.3,0.1l0,0.2c0,0,0,0.1-0.1,0.1c0,0-0.1,0-0.2,0c-0.1,0-0.2,0-0.3,0c-0.2,0-0.4,0-0.6,0.1
		c-0.2,0.1-0.3,0.2-0.4,0.3c-0.1,0.1-0.2,0.3-0.3,0.5c-0.1,0.2-0.2,0.4-0.3,0.7v3.2h-0.3v-4.9h0.1c0.1,0,0.1,0,0.1,0.1L146.8,115z"
		/>
	<path class="st1" d="M150.6,111.9c0,0,0,0.1,0,0.1c0,0,0,0.1-0.1,0.1c0,0-0.1,0.1-0.1,0.1c0,0-0.1,0-0.1,0c-0.1,0-0.2,0-0.2-0.1
		c-0.1-0.1-0.1-0.1-0.1-0.2c0-0.1,0-0.2,0.1-0.2c0.1-0.1,0.1-0.1,0.2-0.1c0,0,0.1,0,0.1,0c0,0,0.1,0,0.1,0.1c0,0,0.1,0.1,0.1,0.1
		C150.5,111.8,150.6,111.8,150.6,111.9z M150.3,113.7v4.9h-0.3v-4.9H150.3z"/>
	<path class="st1" d="M155.3,113.7v0.1c0,0,0,0,0,0.1c0,0,0,0,0,0.1l-3.3,4.5h3.2v0.2h-3.5v-0.1c0,0,0,0,0-0.1s0,0,0-0.1l3.3-4.5
		h-3.2v-0.2H155.3z"/>
	<path class="st1" d="M158.3,113.6c0.4,0,0.7,0.1,0.9,0.2c0.3,0.1,0.5,0.3,0.7,0.5c0.2,0.2,0.3,0.5,0.4,0.8c0.1,0.3,0.1,0.7,0.1,1
		s0,0.7-0.1,1c-0.1,0.3-0.2,0.6-0.4,0.8c-0.2,0.2-0.4,0.4-0.7,0.5c-0.3,0.1-0.6,0.2-0.9,0.2s-0.7-0.1-0.9-0.2
		c-0.3-0.1-0.5-0.3-0.7-0.5c-0.2-0.2-0.3-0.5-0.4-0.8c-0.1-0.3-0.1-0.7-0.1-1s0-0.7,0.1-1c0.1-0.3,0.2-0.6,0.4-0.8
		c0.2-0.2,0.4-0.4,0.7-0.5C157.7,113.7,158,113.6,158.3,113.6z M158.3,118.5c0.3,0,0.6-0.1,0.8-0.2c0.2-0.1,0.4-0.3,0.6-0.5
		c0.2-0.2,0.3-0.4,0.4-0.7c0.1-0.3,0.1-0.6,0.1-0.9c0-0.4,0-0.7-0.1-1c-0.1-0.3-0.2-0.5-0.4-0.7c-0.2-0.2-0.4-0.4-0.6-0.5
		c-0.2-0.1-0.5-0.2-0.8-0.2c-0.3,0-0.6,0.1-0.8,0.2c-0.2,0.1-0.4,0.3-0.6,0.5c-0.2,0.2-0.3,0.5-0.4,0.7c-0.1,0.3-0.1,0.6-0.1,1
		c0,0.3,0,0.7,0.1,0.9c0.1,0.3,0.2,0.5,0.4,0.7c0.2,0.2,0.4,0.4,0.6,0.5C157.7,118.4,158,118.5,158.3,118.5z"/>
	<path class="st1" d="M162.2,114.6c0.2-0.3,0.5-0.6,0.8-0.8c0.3-0.2,0.7-0.3,1-0.3c0.3,0,0.5,0,0.7,0.1c0.2,0.1,0.4,0.2,0.5,0.4
		c0.1,0.2,0.2,0.4,0.3,0.6c0.1,0.2,0.1,0.5,0.1,0.8v3.2h-0.3v-3.2c0-0.3,0-0.5-0.1-0.7c-0.1-0.2-0.1-0.4-0.3-0.5
		c-0.1-0.1-0.3-0.2-0.4-0.3c-0.2-0.1-0.4-0.1-0.6-0.1c-0.4,0-0.7,0.1-1,0.3c-0.3,0.2-0.6,0.4-0.8,0.8v3.7H162v-4.9h0.1
		c0.1,0,0.1,0,0.1,0.1L162.2,114.6z"/>
	<path class="st1" d="M168.6,118.7c-0.3,0-0.5-0.1-0.7-0.3c-0.2-0.2-0.3-0.4-0.3-0.8v-3.6h-0.8c-0.1,0-0.1,0-0.1-0.1v-0.1l0.9,0
		l0.1-1.9c0,0,0,0,0-0.1c0,0,0,0,0.1,0h0.1v2h1.6v0.2h-1.6v3.5c0,0.2,0,0.3,0.1,0.4c0,0.1,0.1,0.2,0.2,0.3c0.1,0.1,0.1,0.1,0.2,0.2
		c0.1,0,0.2,0,0.3,0c0.1,0,0.2,0,0.3-0.1c0.1,0,0.2-0.1,0.3-0.1c0.1,0,0.1-0.1,0.2-0.1c0,0,0.1-0.1,0.1-0.1c0,0,0,0,0.1,0l0.1,0.1
		c-0.1,0.1-0.1,0.1-0.2,0.2c-0.1,0.1-0.2,0.1-0.2,0.1c-0.1,0-0.2,0.1-0.3,0.1C168.8,118.7,168.7,118.7,168.6,118.7z"/>
	<path class="st1" d="M170.6,114.4c0.2-0.3,0.5-0.4,0.8-0.6c0.3-0.1,0.6-0.2,0.9-0.2c0.3,0,0.5,0,0.7,0.1c0.2,0.1,0.3,0.2,0.5,0.4
		c0.1,0.2,0.2,0.3,0.3,0.6c0.1,0.2,0.1,0.5,0.1,0.7v3.2h-0.1c-0.1,0-0.1,0-0.1-0.1l-0.1-0.7c-0.1,0.1-0.3,0.3-0.4,0.4
		c-0.1,0.1-0.3,0.2-0.4,0.3c-0.2,0.1-0.3,0.1-0.5,0.2c-0.2,0-0.4,0.1-0.6,0.1c-0.2,0-0.3,0-0.5-0.1c-0.2,0-0.3-0.1-0.4-0.2
		c-0.1-0.1-0.2-0.2-0.3-0.4c-0.1-0.2-0.1-0.3-0.1-0.6c0-0.2,0.1-0.4,0.2-0.6c0.1-0.2,0.3-0.3,0.6-0.5c0.3-0.1,0.6-0.2,1-0.3
		c0.4-0.1,0.9-0.1,1.4-0.1v-0.6c0-0.5-0.1-0.9-0.3-1.1c-0.2-0.3-0.5-0.4-1-0.4c-0.2,0-0.5,0-0.6,0.1c-0.2,0.1-0.3,0.2-0.5,0.2
		c-0.1,0.1-0.2,0.2-0.3,0.2c-0.1,0.1-0.1,0.1-0.2,0.1C170.7,114.5,170.6,114.5,170.6,114.4L170.6,114.4z M173.5,116.1
		c-1,0-1.8,0.2-2.2,0.4c-0.5,0.2-0.7,0.5-0.7,0.9c0,0.2,0,0.3,0.1,0.5c0.1,0.1,0.1,0.2,0.2,0.3c0.1,0.1,0.2,0.2,0.3,0.2
		c0.1,0,0.3,0.1,0.4,0.1c0.2,0,0.4,0,0.6-0.1c0.2,0,0.3-0.1,0.5-0.2c0.1-0.1,0.3-0.2,0.4-0.3c0.1-0.1,0.3-0.2,0.4-0.4V116.1z"/>
	<path class="st1" d="M175.8,111.4v7.2h-0.3v-7.2H175.8z"/>
	<path class="st1" d="M184,113.7l-2.1,4.9h-0.2l-2.1-4.9h0.2c0,0,0.1,0,0.1,0c0,0,0,0,0,0.1l1.8,4.3c0,0,0,0.1,0.1,0.1
		c0,0,0,0.1,0,0.1c0,0,0-0.1,0-0.1c0,0,0-0.1,0.1-0.1l1.8-4.3c0,0,0,0,0-0.1c0,0,0,0,0.1,0H184z"/>
	<path class="st1" d="M188.7,118c-0.1,0.1-0.2,0.2-0.3,0.2c-0.1,0.1-0.3,0.2-0.4,0.2c-0.2,0.1-0.3,0.1-0.5,0.1
		c-0.2,0-0.4,0.1-0.6,0.1c-0.3,0-0.6-0.1-0.9-0.2c-0.3-0.1-0.5-0.3-0.7-0.5c-0.2-0.2-0.3-0.5-0.4-0.8c-0.1-0.3-0.2-0.7-0.2-1.1
		c0-0.4,0-0.7,0.1-1c0.1-0.3,0.2-0.6,0.4-0.8c0.2-0.2,0.4-0.4,0.7-0.5c0.3-0.1,0.6-0.2,0.9-0.2c0.3,0,0.5,0,0.7,0.1
		c0.2,0.1,0.4,0.2,0.6,0.4s0.3,0.4,0.4,0.7c0.1,0.3,0.1,0.6,0.1,0.9c0,0.1,0,0.1-0.1,0.1H185c0,0,0,0.1,0,0.1c0,0,0,0.1,0,0.1
		c0,0.4,0,0.7,0.1,1c0.1,0.3,0.2,0.6,0.4,0.8c0.2,0.2,0.4,0.4,0.6,0.5c0.2,0.1,0.5,0.2,0.8,0.2c0.3,0,0.5,0,0.7-0.1
		c0.2-0.1,0.4-0.1,0.5-0.2c0.1-0.1,0.2-0.1,0.3-0.2c0.1-0.1,0.1-0.1,0.1-0.1C188.6,117.9,188.6,117.9,188.7,118L188.7,118z
		 M188.6,115.7c0-0.3,0-0.6-0.1-0.8c-0.1-0.2-0.2-0.4-0.4-0.6c-0.1-0.2-0.3-0.3-0.5-0.4c-0.2-0.1-0.4-0.1-0.7-0.1
		c-0.3,0-0.5,0-0.8,0.1c-0.2,0.1-0.4,0.2-0.6,0.4c-0.2,0.2-0.3,0.4-0.4,0.6c-0.1,0.2-0.2,0.5-0.2,0.8H188.6z"/>
	<path class="st1" d="M190.4,115c0.1-0.2,0.2-0.4,0.3-0.6c0.1-0.2,0.2-0.3,0.3-0.4c0.1-0.1,0.3-0.2,0.4-0.3c0.2-0.1,0.4-0.1,0.6-0.1
		c0.1,0,0.2,0,0.3,0c0.1,0,0.2,0,0.3,0.1l0,0.2c0,0,0,0.1-0.1,0.1c0,0-0.1,0-0.2,0c-0.1,0-0.2,0-0.3,0c-0.2,0-0.4,0-0.6,0.1
		c-0.2,0.1-0.3,0.2-0.4,0.3c-0.1,0.1-0.2,0.3-0.3,0.5c-0.1,0.2-0.2,0.4-0.3,0.7v3.2h-0.3v-4.9h0.1c0.1,0,0.1,0,0.1,0.1L190.4,115z"
		/>
	<path class="st1" d="M196.2,114.2C196.2,114.2,196.2,114.2,196.2,114.2c-0.1,0-0.1,0-0.2,0c-0.1,0-0.1-0.1-0.2-0.1
		c-0.1-0.1-0.2-0.1-0.4-0.1c-0.1,0-0.3-0.1-0.5-0.1c-0.2,0-0.4,0-0.5,0.1c-0.2,0.1-0.3,0.1-0.4,0.2c-0.1,0.1-0.2,0.2-0.3,0.3
		c-0.1,0.1-0.1,0.3-0.1,0.4c0,0.2,0,0.3,0.1,0.4c0.1,0.1,0.2,0.2,0.3,0.3c0.1,0.1,0.3,0.1,0.5,0.2c0.2,0.1,0.3,0.1,0.5,0.2
		c0.2,0.1,0.4,0.1,0.5,0.2c0.2,0.1,0.3,0.1,0.5,0.2c0.1,0.1,0.2,0.2,0.3,0.3c0.1,0.1,0.1,0.3,0.1,0.5c0,0.2,0,0.4-0.1,0.6
		c-0.1,0.2-0.2,0.3-0.3,0.5c-0.1,0.1-0.3,0.2-0.5,0.3c-0.2,0.1-0.4,0.1-0.7,0.1c-0.2,0-0.3,0-0.5,0c-0.1,0-0.3-0.1-0.4-0.1
		c-0.1-0.1-0.2-0.1-0.3-0.2c-0.1-0.1-0.2-0.2-0.3-0.2l0.1-0.1c0,0,0,0,0,0c0,0,0,0,0.1,0c0,0,0.1,0,0.1,0.1c0.1,0.1,0.1,0.1,0.2,0.2
		c0.1,0.1,0.2,0.1,0.4,0.2c0.2,0.1,0.4,0.1,0.6,0.1c0.2,0,0.4,0,0.6-0.1c0.2-0.1,0.3-0.2,0.4-0.3c0.1-0.1,0.2-0.2,0.3-0.4
		c0.1-0.2,0.1-0.3,0.1-0.5c0-0.2,0-0.3-0.1-0.4c-0.1-0.1-0.2-0.2-0.3-0.3c-0.1-0.1-0.3-0.2-0.5-0.2c-0.2-0.1-0.3-0.1-0.5-0.2
		c-0.2-0.1-0.4-0.1-0.5-0.2c-0.2-0.1-0.3-0.1-0.5-0.2c-0.1-0.1-0.2-0.2-0.3-0.3c-0.1-0.1-0.1-0.3-0.1-0.5c0-0.2,0-0.3,0.1-0.5
		c0.1-0.2,0.2-0.3,0.3-0.4c0.1-0.1,0.3-0.2,0.5-0.3c0.2-0.1,0.4-0.1,0.6-0.1c0.3,0,0.5,0,0.8,0.1
		C195.9,113.8,196.1,113.9,196.2,114.2L196.2,114.2z"/>
	<path class="st1" d="M198.3,111.9c0,0,0,0.1,0,0.1c0,0,0,0.1-0.1,0.1c0,0-0.1,0.1-0.1,0.1c0,0-0.1,0-0.1,0c-0.1,0-0.2,0-0.2-0.1
		c-0.1-0.1-0.1-0.1-0.1-0.2c0-0.1,0-0.2,0.1-0.2c0.1-0.1,0.1-0.1,0.2-0.1c0,0,0.1,0,0.1,0c0,0,0.1,0,0.1,0.1c0,0,0.1,0.1,0.1,0.1
		C198.3,111.8,198.3,111.8,198.3,111.9z M198.1,113.7v4.9h-0.3v-4.9H198.1z"/>
	<path class="st1" d="M201.8,113.6c0.4,0,0.7,0.1,0.9,0.2c0.3,0.1,0.5,0.3,0.7,0.5c0.2,0.2,0.3,0.5,0.4,0.8c0.1,0.3,0.1,0.7,0.1,1
		s0,0.7-0.1,1c-0.1,0.3-0.2,0.6-0.4,0.8c-0.2,0.2-0.4,0.4-0.7,0.5c-0.3,0.1-0.6,0.2-0.9,0.2s-0.7-0.1-0.9-0.2
		c-0.3-0.1-0.5-0.3-0.7-0.5c-0.2-0.2-0.3-0.5-0.4-0.8c-0.1-0.3-0.1-0.7-0.1-1s0-0.7,0.1-1c0.1-0.3,0.2-0.6,0.4-0.8
		c0.2-0.2,0.4-0.4,0.7-0.5C201.2,113.7,201.5,113.6,201.8,113.6z M201.8,118.5c0.3,0,0.6-0.1,0.8-0.2c0.2-0.1,0.4-0.3,0.6-0.5
		c0.2-0.2,0.3-0.4,0.4-0.7c0.1-0.3,0.1-0.6,0.1-0.9c0-0.4,0-0.7-0.1-1c-0.1-0.3-0.2-0.5-0.4-0.7c-0.2-0.2-0.4-0.4-0.6-0.5
		c-0.2-0.1-0.5-0.2-0.8-0.2c-0.3,0-0.6,0.1-0.8,0.2c-0.2,0.1-0.4,0.3-0.6,0.5c-0.2,0.2-0.3,0.5-0.4,0.7c-0.1,0.3-0.1,0.6-0.1,1
		c0,0.3,0,0.7,0.1,0.9c0.1,0.3,0.2,0.5,0.4,0.7c0.2,0.2,0.4,0.4,0.6,0.5C201.2,118.4,201.5,118.5,201.8,118.5z"/>
	<path class="st1" d="M205.7,114.6c0.2-0.3,0.5-0.6,0.8-0.8c0.3-0.2,0.7-0.3,1-0.3c0.3,0,0.5,0,0.7,0.1c0.2,0.1,0.4,0.2,0.5,0.4
		c0.1,0.2,0.2,0.4,0.3,0.6c0.1,0.2,0.1,0.5,0.1,0.8v3.2H209v-3.2c0-0.3,0-0.5-0.1-0.7c-0.1-0.2-0.1-0.4-0.3-0.5
		c-0.1-0.1-0.3-0.2-0.4-0.3c-0.2-0.1-0.4-0.1-0.6-0.1c-0.4,0-0.7,0.1-1,0.3c-0.3,0.2-0.6,0.4-0.8,0.8v3.7h-0.3v-4.9h0.1
		c0.1,0,0.1,0,0.1,0.1L205.7,114.6z"/>
</g>
</svg>
