<?xml version="1.0" encoding="utf-8"?>
<!-- Generator: Adobe Illustrator 19.0.1, SVG Export Plug-In . SVG Version: 6.00 Build 0)  -->
<svg version="1.1" id="Layer_1" xmlns="http://www.w3.org/2000/svg" xmlns:xlink="http://www.w3.org/1999/xlink" x="0px" y="0px"
	 viewBox="-833 950 331.5 102" style="enable-background:new -833 950 331.5 102;" xml:space="preserve">
<style type="text/css">
	.st0{fill:#003676;}
</style>
<g>
	<g>
		<path class="st0" d="M-686.8,987.8l-8.6,27.8h-5.8l-5.2-17.3c-0.1-0.3-0.2-0.6-0.3-0.9c-0.1-0.3-0.2-0.7-0.3-1
			c-0.1,0.4-0.2,0.7-0.3,1c-0.1,0.3-0.2,0.6-0.3,0.9l-5.3,17.3h-5.8l-8.6-27.8h5.4c0.6,0,1,0.1,1.4,0.4c0.4,0.3,0.6,0.6,0.7,1
			l3.8,14.5c0.1,0.5,0.2,1,0.3,1.5c0.1,0.5,0.2,1.1,0.3,1.7c0.2-1.2,0.5-2.3,0.8-3.2l4.5-14.5c0.1-0.4,0.4-0.7,0.7-1
			c0.4-0.3,0.8-0.4,1.4-0.4h1.9c0.6,0,1,0.1,1.4,0.4c0.3,0.3,0.6,0.6,0.8,1l4.5,14.5c0.3,0.9,0.6,1.9,0.8,3c0.1-0.6,0.2-1.1,0.3-1.6
			c0.1-0.5,0.2-1,0.3-1.4l3.8-14.5c0.1-0.4,0.3-0.7,0.7-1s0.8-0.4,1.4-0.4H-686.8z"/>
		<path class="st0" d="M-682.3,1006.8c0.2,1.7,0.7,2.9,1.5,3.6c0.8,0.7,1.9,1.1,3.2,1.1c0.7,0,1.3-0.1,1.8-0.2
			c0.5-0.2,0.9-0.4,1.3-0.6s0.7-0.4,1.1-0.6c0.3-0.2,0.7-0.2,1-0.2c0.5,0,0.8,0.2,1.1,0.5l1.7,2.1c-0.6,0.7-1.3,1.3-2,1.7
			c-0.7,0.4-1.4,0.8-2.2,1c-0.7,0.2-1.5,0.4-2.2,0.5c-0.7,0.1-1.5,0.1-2.1,0.1c-1.4,0-2.7-0.2-3.9-0.7c-1.2-0.5-2.3-1.1-3.2-2
			c-0.9-0.9-1.6-2-2.2-3.3c-0.5-1.3-0.8-2.9-0.8-4.6c0-1.3,0.2-2.6,0.7-3.8c0.5-1.2,1.1-2.2,1.9-3.1c0.8-0.9,1.9-1.6,3.1-2.1
			s2.6-0.8,4.1-0.8c1.3,0,2.5,0.2,3.6,0.6c1.1,0.4,2,1,2.8,1.8c0.8,0.8,1.4,1.7,1.8,2.9c0.4,1.1,0.7,2.4,0.7,3.8
			c0,0.4,0,0.8-0.1,1.1c0,0.3-0.1,0.5-0.2,0.7c-0.1,0.2-0.2,0.3-0.4,0.3c-0.2,0.1-0.4,0.1-0.7,0.1L-682.3,1006.8L-682.3,1006.8z
			 M-674.9,1003.4c0-0.5-0.1-0.9-0.2-1.4c-0.1-0.4-0.3-0.8-0.6-1.2c-0.3-0.4-0.6-0.6-1.1-0.9c-0.4-0.2-1-0.3-1.6-0.3
			c-1.1,0-2,0.3-2.6,1c-0.6,0.6-1.1,1.6-1.3,2.8C-682.3,1003.4-674.9,1003.4-674.9,1003.4z"/>
		<path class="st0" d="M-654,1000.2c-0.2,0.2-0.3,0.4-0.5,0.5c-0.2,0.1-0.4,0.2-0.7,0.2s-0.6-0.1-0.8-0.2c-0.3-0.1-0.6-0.3-0.9-0.4
			c-0.3-0.1-0.7-0.3-1.1-0.4c-0.4-0.1-0.9-0.2-1.4-0.2c-0.8,0-1.3,0.1-1.7,0.4c-0.4,0.3-0.6,0.7-0.6,1.2c0,0.4,0.1,0.7,0.4,0.9
			s0.6,0.5,1,0.6c0.4,0.2,0.9,0.4,1.5,0.5c0.5,0.2,1.1,0.4,1.7,0.6c0.6,0.2,1.1,0.4,1.7,0.7c0.5,0.3,1,0.6,1.5,1
			c0.4,0.4,0.8,0.9,1,1.5c0.3,0.6,0.4,1.3,0.4,2.1c0,1-0.2,1.9-0.5,2.7c-0.4,0.8-0.9,1.5-1.6,2.1s-1.6,1.1-2.6,1.4
			c-1,0.3-2.2,0.5-3.6,0.5c-0.7,0-1.4-0.1-2-0.2c-0.7-0.1-1.3-0.3-2-0.5c-0.6-0.2-1.2-0.5-1.7-0.8c-0.5-0.3-1-0.6-1.4-1l1.4-2.2
			c0.2-0.3,0.3-0.5,0.6-0.6c0.2-0.1,0.5-0.2,0.9-0.2c0.3,0,0.7,0.1,0.9,0.2c0.3,0.2,0.6,0.3,0.9,0.5c0.3,0.2,0.7,0.3,1.1,0.5
			c0.4,0.2,1,0.2,1.6,0.2c0.5,0,0.8,0,1.2-0.1c0.3-0.1,0.6-0.2,0.8-0.4c0.2-0.2,0.3-0.4,0.4-0.6c0.1-0.2,0.1-0.4,0.1-0.6
			c0-0.4-0.1-0.7-0.4-1c-0.3-0.3-0.6-0.5-1.1-0.7c-0.4-0.2-0.9-0.4-1.5-0.5c-0.6-0.2-1.1-0.3-1.7-0.5c-0.6-0.2-1.1-0.4-1.7-0.7
			s-1-0.6-1.5-1.1c-0.4-0.4-0.8-1-1.1-1.6c-0.3-0.6-0.4-1.4-0.4-2.3c0-0.8,0.2-1.6,0.5-2.4s0.8-1.4,1.5-2c0.6-0.6,1.5-1,2.4-1.4
			c1-0.3,2.1-0.5,3.4-0.5c0.7,0,1.4,0.1,2.1,0.2c0.7,0.1,1.3,0.3,1.9,0.5c0.6,0.2,1.1,0.5,1.6,0.8c0.5,0.3,0.9,0.7,1.3,1
			L-654,1000.2z"/>
		<path class="st0" d="M-642.5,1016c-0.9,0-1.8-0.1-2.5-0.4c-0.7-0.3-1.3-0.7-1.8-1.2s-0.9-1.1-1.1-1.8c-0.3-0.7-0.4-1.5-0.4-2.4
			v-10.3h-1.7c-0.3,0-0.6-0.1-0.8-0.3c-0.2-0.2-0.3-0.5-0.3-0.9v-2.3l3.2-0.6l1.2-4.8c0.2-0.6,0.6-0.9,1.3-0.9h3.1v5.8h4.9v4.1h-4.9
			v9.8c0,0.5,0.1,0.8,0.3,1.1c0.2,0.3,0.5,0.4,1,0.4c0.2,0,0.4,0,0.5-0.1c0.1,0,0.3-0.1,0.4-0.2c0.1-0.1,0.2-0.1,0.3-0.2
			c0.1,0,0.2-0.1,0.3-0.1c0.2,0,0.3,0,0.4,0.1c0.1,0.1,0.2,0.2,0.3,0.4l1.8,2.8c-0.8,0.6-1.6,1-2.6,1.3
			C-640.5,1015.8-641.5,1016-642.5,1016z"/>
		<path class="st0" d="M-630.2,1006.8c0.2,1.7,0.7,2.9,1.5,3.6c0.8,0.7,1.9,1.1,3.2,1.1c0.7,0,1.3-0.1,1.8-0.2
			c0.5-0.2,0.9-0.4,1.3-0.6c0.4-0.2,0.7-0.4,1.1-0.6c0.3-0.2,0.7-0.2,1-0.2c0.5,0,0.8,0.2,1.1,0.5l1.7,2.1c-0.6,0.7-1.3,1.3-2,1.7
			c-0.7,0.4-1.4,0.8-2.2,1c-0.7,0.2-1.5,0.4-2.2,0.5c-0.7,0.1-1.5,0.1-2.1,0.1c-1.4,0-2.7-0.2-3.9-0.7s-2.3-1.1-3.2-2
			c-0.9-0.9-1.6-2-2.2-3.3c-0.5-1.3-0.8-2.9-0.8-4.6c0-1.3,0.2-2.6,0.7-3.8c0.5-1.2,1.1-2.2,1.9-3.1c0.8-0.9,1.9-1.6,3.1-2.1
			s2.6-0.8,4.1-0.8c1.3,0,2.5,0.2,3.6,0.6c1.1,0.4,2,1,2.8,1.8s1.4,1.7,1.8,2.9c0.4,1.1,0.7,2.4,0.7,3.8c0,0.4,0,0.8-0.1,1.1
			c0,0.3-0.1,0.5-0.2,0.7c-0.1,0.2-0.2,0.3-0.4,0.3c-0.2,0.1-0.4,0.1-0.7,0.1L-630.2,1006.8L-630.2,1006.8z M-622.8,1003.4
			c0-0.5-0.1-0.9-0.2-1.4c-0.1-0.4-0.3-0.8-0.6-1.2c-0.3-0.4-0.6-0.6-1.1-0.9c-0.4-0.2-1-0.3-1.6-0.3c-1.1,0-2,0.3-2.6,1
			c-0.6,0.6-1.1,1.6-1.3,2.8C-630.2,1003.4-622.8,1003.4-622.8,1003.4z"/>
		<path class="st0" d="M-608.9,998.9c0.6-1.1,1.3-1.9,2.1-2.5c0.8-0.6,1.7-0.9,2.7-0.9c0.9,0,1.6,0.2,2.2,0.6l-0.4,4.4
			c-0.1,0.3-0.2,0.5-0.3,0.6c-0.1,0.1-0.3,0.2-0.6,0.2c-0.1,0-0.2,0-0.4,0c-0.2,0-0.3,0-0.5,0c-0.2,0-0.4,0-0.5-0.1
			c-0.2,0-0.4,0-0.5,0c-0.9,0-1.6,0.2-2.1,0.7s-1,1.1-1.3,1.9v12h-5.9v-20h3.5c0.3,0,0.5,0,0.7,0.1c0.2,0.1,0.4,0.1,0.5,0.2
			c0.1,0.1,0.2,0.3,0.3,0.4c0.1,0.2,0.1,0.4,0.2,0.6L-608.9,998.9z"/>
		<path class="st0" d="M-585.7,1000.5c-0.2,0.2-0.3,0.4-0.5,0.5s-0.4,0.2-0.7,0.2c-0.3,0-0.6-0.1-0.8-0.2s-0.5-0.3-0.8-0.5
			s-0.6-0.3-1-0.5c-0.4-0.1-0.9-0.2-1.5-0.2c-0.7,0-1.4,0.1-1.9,0.4s-1,0.6-1.3,1.1s-0.6,1.1-0.8,1.8c-0.2,0.7-0.2,1.5-0.2,2.4
			c0,1.9,0.4,3.4,1.1,4.4c0.7,1,1.7,1.5,3,1.5c0.7,0,1.2-0.1,1.6-0.3c0.4-0.2,0.7-0.4,1-0.6c0.3-0.2,0.5-0.4,0.8-0.6
			c0.2-0.2,0.5-0.3,0.9-0.3c0.5,0,0.8,0.2,1.1,0.5l1.7,2.1c-0.6,0.7-1.3,1.3-1.9,1.7c-0.7,0.4-1.4,0.8-2.1,1s-1.4,0.4-2.1,0.5
			c-0.7,0.1-1.4,0.1-2.1,0.1c-1.2,0-2.4-0.2-3.5-0.7c-1.1-0.5-2.1-1.1-2.9-2c-0.8-0.9-1.5-1.9-2-3.2c-0.5-1.3-0.7-2.7-0.7-4.4
			c0-1.4,0.2-2.8,0.6-4c0.4-1.2,1.1-2.3,1.9-3.2s1.9-1.6,3.1-2.1c1.2-0.5,2.7-0.8,4.3-0.8c1.6,0,2.9,0.2,4.1,0.7s2.2,1.2,3.2,2.2
			L-585.7,1000.5z"/>
		<path class="st0" d="M-572.9,995.5c1.5,0,2.9,0.2,4.1,0.7s2.3,1.1,3.2,2c0.9,0.9,1.6,1.9,2.1,3.2c0.5,1.3,0.7,2.7,0.7,4.2
			c0,1.6-0.2,3-0.7,4.3c-0.5,1.3-1.2,2.3-2.1,3.2c-0.9,0.9-1.9,1.6-3.2,2c-1.3,0.4-2.6,0.7-4.1,0.7s-2.9-0.2-4.1-0.7s-2.3-1.2-3.2-2
			c-0.9-0.9-1.6-2-2.1-3.2c-0.5-1.3-0.7-2.7-0.7-4.3c0-1.6,0.2-3,0.7-4.2c0.5-1.3,1.2-2.3,2.1-3.2c0.9-0.9,2-1.6,3.2-2
			C-575.8,995.8-574.4,995.5-572.9,995.5z M-572.9,1011.6c1.4,0,2.4-0.5,3-1.4c0.6-1,1-2.4,1-4.4s-0.3-3.4-1-4.4
			c-0.6-1-1.6-1.4-3-1.4c-1.4,0-2.4,0.5-3.1,1.4c-0.6,1-1,2.4-1,4.4s0.3,3.4,1,4.4C-575.3,1011.1-574.3,1011.6-572.9,1011.6z"/>
		<path class="st0" d="M-559.8,1015.7v-19.9h3.7c0.7,0,1.2,0.3,1.5,1l0.3,1.1c0.3-0.3,0.7-0.7,1-0.9c0.4-0.3,0.7-0.5,1.2-0.7
			c0.4-0.2,0.9-0.4,1.3-0.5c0.5-0.1,1-0.2,1.6-0.2c1.2,0,2.2,0.3,3,0.9c0.8,0.6,1.4,1.4,1.8,2.5c0.3-0.6,0.7-1.1,1.2-1.6
			c0.5-0.4,1-0.8,1.5-1.1c0.6-0.3,1.1-0.5,1.8-0.6c0.6-0.1,1.2-0.2,1.8-0.2c1.1,0,2.1,0.2,3,0.5c0.9,0.3,1.6,0.8,2.2,1.5
			c0.6,0.6,1,1.4,1.3,2.4c0.3,0.9,0.5,2,0.5,3.2v12.6h-5.9v-12.6c0-2.1-0.9-3.1-2.6-3.1c-0.8,0-1.5,0.3-2,0.8s-0.8,1.3-0.8,2.3v12.6
			h-5.9v-12.6c0-1.1-0.2-1.9-0.7-2.4c-0.4-0.5-1.1-0.7-2-0.7c-0.5,0-1,0.1-1.5,0.4c-0.5,0.2-0.9,0.6-1.3,1v14.3H-559.8z"/>
	</g>
	<g>
		<polygon class="st0" points="-763.8,977.2 -747.1,977.2 -739,993.5 -748.8,1007.6 		"/>
		<polygon class="st0" points="-792.6,977.2 -809.4,977.2 -784.9,1026.6 -775.1,1012.5 		"/>
		<polygon class="st0" points="-809.4,977.2 -797.1,984.9 -783.6,1011.6 -784.9,1026.6 		"/>
		<polygon class="st0" points="-797.1,984.9 -792.6,977.2 -809.4,977.2 		"/>
		<polygon class="st0" points="-784.9,1026.6 -783.6,1011.6 -775.1,1012.5 		"/>
		<polygon class="st0" points="-769.7,977.2 -786.5,977.2 -762,1026.6 -752.2,1012.5 		"/>
		<polygon class="st0" points="-786.5,977.2 -774.2,984.9 -760.7,1011.6 -762,1026.6 		"/>
		<polygon class="st0" points="-774.2,984.9 -769.7,977.2 -786.5,977.2 		"/>
		<polygon class="st0" points="-762,1026.6 -760.7,1011.6 -752.2,1012.5 		"/>
		<polygon class="st0" points="-763.8,977.2 -751.1,984.9 -746.9,993.5 -748.8,1007.6 		"/>
		<polygon class="st0" points="-763.8,977.2 -751.1,984.9 -747.1,977.2 		"/>
		<polygon class="st0" points="-748.8,1007.6 -746.9,993.5 -739,993.5 		"/>
	</g>
</g>
</svg>
