<?xml version="1.0" encoding="utf-8"?>
<!-- Generator: Adobe Illustrator 19.0.1, SVG Export Plug-In . SVG Version: 6.00 Build 0)  -->
<svg version="1.1" id="Layer_1" xmlns="http://www.w3.org/2000/svg" xmlns:xlink="http://www.w3.org/1999/xlink" x="0px" y="0px"
	 viewBox="-408 583.5 24 24" style="enable-background:new -408 583.5 24 24;" xml:space="preserve">
<style type="text/css">
	.st0{fill:#003676;}
</style>
<path class="st0" d="M-387.6,593.1c-1-2.6-0.4-3.4,0.6-4.5l0.9-0.9c-4.8-4.1-3.8-3.2-4.9-4.2c-0.5,0.6-1.2,1.4-2.4,1.4
	c-1.3,0-2.1-0.9-2.6-1.4c-0.6,0.5-1.4,1.4-2.6,1.4c-1.2,0-1.9-0.9-2.4-1.4l-4.9,4.2l0.8,0.9c1,1.1,1.5,1.9,0.6,4.5
	c-0.8,2.3-1.6,4-1.6,5.8c0,3.3,2.1,5.7,5.7,6.6c2.6,0.7,3,1,4.3,2c1.3-1.1,1.7-1.4,4.3-2c3.6-0.9,5.7-3.3,5.7-6.6
	C-386,597.1-386.7,595.4-387.6,593.1z M-393.4,599.5l-2.6-1.4l-2.6,1.4l0.5-2.9l-2.1-2l2.9-0.4l1.3-2.6l1.3,2.6l2.9,0.4l-2.1,2
	C-393.9,596.7-393.4,599.5-393.4,599.5z"/>
</svg>
