<?xml version="1.0" encoding="utf-8"?>
<!-- Generator: Adobe Illustrator 19.0.1, SVG Export Plug-In . SVG Version: 6.00 Build 0)  -->
<svg version="1.1" id="Layer_1" xmlns="http://www.w3.org/2000/svg" xmlns:xlink="http://www.w3.org/1999/xlink" x="0px" y="0px"
	 viewBox="-987 989 24 24" style="enable-background:new -987 989 24 24;" xml:space="preserve">
<style type="text/css">
	.st0{fill:#003676;}
</style>
<g>
	<path class="st0" d="M-973.6,1003.3c0,4.2,2.5,7.8,5.3,9.7c2.9-1.9,5.3-5.5,5.3-9.7c-1.4-1.1-3.5-1.9-5.3-1.9
		C-970.2,1001.4-972.3,1002.2-973.6,1003.3z"/>
	<g>
		<path class="st0" d="M-975.2,1003.3v-0.7l0.6-0.5c0.3-0.2,0.6-0.4,0.9-0.6c-0.3-0.4-0.2-1,0.1-1.7c3.7-7,1-10.7-2.9-10.7
			c-4,0-6.6,3.9-2.9,10.7c1.3,2.3-1.4,2.9-4,3.5c-2.4,0.6-2.5,1.8-2.5,3.9l0,0.8h11.7C-974.9,1006.4-975.2,1004.8-975.2,1003.3z"/>
		<path class="st0" d="M-967.1,1007.1c0-2.1-0.1-3.3-2.5-3.9c-1-0.2-2-0.5-2.8-0.8c-0.5,0.2-0.9,0.5-1.3,0.8c0,1.6,0.4,3.2,1,4.6
			h5.5L-967.1,1007.1z"/>
	</g>
</g>
</svg>
