<?xml version="1.0" encoding="utf-8"?>
<!-- Generator: Adobe Illustrator 19.0.1, SVG Export Plug-In . SVG Version: 6.00 Build 0)  -->
<svg version="1.1" id="Layer_1" xmlns="http://www.w3.org/2000/svg" xmlns:xlink="http://www.w3.org/1999/xlink" x="0px" y="0px"
	 viewBox="-987 989 24 24" style="enable-background:new -987 989 24 24;" xml:space="preserve">
<style type="text/css">
	.st0{fill:#003676;}
</style>
<path class="st0" d="M-979,998v-3c0-2.2,1.8-4,4-4s4,1.8,4,4v3h2v-3c0-3.3-2.7-6-6-6s-6,2.7-6,6v3H-979z M-978.3,1000h2.8l-8.6,8.8
	v-2.9C-984,1005.9-978.3,1000-978.3,1000z M-966,1001.6v-1.6h-1.4l-12.7,13h2.9L-966,1001.6z M-972.8,1000l-11.2,11.4v1.6h1.4
	l12.7-13C-970,1000-972.8,1000-972.8,1000z M-966,1007.1v-2.9l-8.6,8.8h2.9L-966,1007.1z M-969.1,1013h3.1v-3.2L-969.1,1013z
	 M-980.8,1000h-3.2v3.2L-980.8,1000z"/>
</svg>
