<?xml version="1.0" encoding="utf-8"?>
<!-- Generator: Adobe Illustrator 19.0.1, SVG Export Plug-In . SVG Version: 6.00 Build 0)  -->
<svg version="1.1" id="Layer_1" xmlns="http://www.w3.org/2000/svg" xmlns:xlink="http://www.w3.org/1999/xlink" x="0px" y="0px"
	 viewBox="-987 989 24 24" style="enable-background:new -987 989 24 24;" xml:space="preserve">
<style type="text/css">
	.st0{fill:#003676;}
</style>
<polygon class="st0" points="-967,997.1 -970,994.1 -970,992 -967,992 "/>
<g>
	<path class="st0" d="M-975,989l-12,12h3v10h18v-10h3L-975,989z M-975,1006.9c-3.7,0-6.1-3.8-6.1-3.8s2.3-3.4,6.1-3.4
		c3.9,0,6.1,3.4,6.1,3.4S-971,1006.9-975,1006.9z"/>
	<path class="st0" d="M-975,1000.8c-1.4,0-2.6,1.1-2.6,2.6c0,1.4,1.1,2.6,2.6,2.6c1.4,0,2.6-1.1,2.6-2.6
		C-972.4,1001.9-973.6,1000.8-975,1000.8z M-975,1004.9c-0.8,0-1.5-0.7-1.5-1.5c0-0.1,0-0.2,0-0.3c0.8,0.3,1.5-0.5,1.2-1.2
		c0.1,0,0.2,0,0.3,0c0.8,0,1.5,0.7,1.5,1.5C-973.5,1004.2-974.2,1004.9-975,1004.9z"/>
</g>
</svg>
