<?xml version="1.0" encoding="utf-8"?>
<!-- Generator: Adobe Illustrator 19.0.1, SVG Export Plug-In . SVG Version: 6.00 Build 0)  -->
<svg version="1.1" id="Layer_1" xmlns="http://www.w3.org/2000/svg" xmlns:xlink="http://www.w3.org/1999/xlink" x="0px" y="0px"
	 viewBox="-408 583.5 24 24" style="enable-background:new -408 583.5 24 24;" xml:space="preserve">
<style type="text/css">
	.st0{fill:#003676;}
</style>
<path class="st0" d="M-387.6,594.6c-0.1,1.9-2.2,3.1-8.4,3.1c-6.2,0-8.4-1.2-8.4-3.1c1.5,0,4.4-2,8.4-2
	C-392.1,592.7-388.9,594.6-387.6,594.6z M-396,598.7c-2.1,0-3.7-0.1-5.1-0.4c0.1,0.6,0.5,3.3,2.4,3.3c1.7,0,1.7-1.3,2.7-1.3
	c1,0,1.2,1.3,2.9,1.3c2.1,0,2.5-3.1,2.5-3.4C-392,598.6-393.8,598.7-396,598.7z M-389.6,598c0,2.2-0.7,4.8-2.3,6.4
	c-1,1.1-2.4,1.7-3.9,1.7c-1.6,0-2.9-0.5-3.9-1.6c-1.6-1.7-2.3-4.3-2.4-6.5c-0.5-0.2-1-0.3-1.5-0.6c0,2.5,0.7,5.9,2.8,8.1
	c1.3,1.3,3,2,5,2c2,0,3.7-0.7,5-2.2c2.1-2.3,2.8-5.7,2.7-8.1C-388.6,597.6-389.1,597.8-389.6,598z M-395.9,587l-0.3,0.6l-0.7,0.1
	l0.5,0.5l-0.1,0.7l0.6-0.3l0.6,0.3l-0.1-0.7l0.5-0.5l-0.7-0.1L-395.9,587z M-388.7,586.8c0,0-2.5-0.7-7.3-3.2
	c-4.8,2.6-7.3,3.2-7.3,3.2s-1.3,2.4-3.7,5l2.3,1.9c1.5-0.2,4.6-2.1,8.7-2.1s7.2,1.9,8.7,2.1l2.3-1.9
	C-387.4,589.2-388.7,586.8-388.7,586.8z M-395,590c-0.5,0.1-0.6,0.2-0.9,0.4c-0.3-0.2-0.3-0.3-0.9-0.4c-0.7-0.2-1.2-0.7-1.2-1.3
	c0-0.4,0.1-0.7,0.3-1.1c0.2-0.5,0.1-0.7-0.1-0.9l-0.2-0.2l1-0.8c0.1,0.1,0.2,0.3,0.5,0.3c0.2,0,0.4-0.2,0.5-0.3
	c0.1,0.1,0.3,0.3,0.5,0.3c0.2,0,0.4-0.2,0.5-0.3l1,0.8l-0.2,0.2c-0.2,0.2-0.3,0.4-0.1,0.9c0.2,0.5,0.3,0.8,0.3,1.1
	C-393.8,589.3-394.3,589.8-395,590z"/>
</svg>
