<?xml version="1.0" encoding="utf-8"?>
<!-- Generator: Adobe Illustrator 19.0.1, SVG Export Plug-In . SVG Version: 6.00 Build 0)  -->
<svg version="1.1" id="Layer_1" xmlns="http://www.w3.org/2000/svg" xmlns:xlink="http://www.w3.org/1999/xlink" x="0px" y="0px"
	 viewBox="-408 583.5 24 24" style="enable-background:new -408 583.5 24 24;" xml:space="preserve">
<style type="text/css">
	.st0{fill:#003676;}
</style>
<path class="st0" d="M-393,595.5c0,1.7-1.3,3-3,3s-3-1.3-3-3c0-0.2,0-0.4,0.1-0.6c1.5,0.5,2.9-0.9,2.4-2.4c0.2,0,0.4,0,0.5,0
	C-394.3,592.5-393,593.9-393,595.5z M-396,588.5c-7.6,0-12,6.6-12,6.6s4.8,7.4,12,7.4c7.7,0,12-7.4,12-7.4S-388.3,588.5-396,588.5z
	 M-396,600.5c-2.8,0-5-2.2-5-5c0-2.8,2.2-5,5-5c2.8,0,5,2.2,5,5C-391,598.3-393.2,600.5-396,600.5z"/>
</svg>
