<?xml version="1.0" encoding="utf-8"?>
<!-- Generator: Adobe Illustrator 19.0.1, SVG Export Plug-In . SVG Version: 6.00 Build 0)  -->
<svg version="1.1" id="Layer_1" xmlns="http://www.w3.org/2000/svg" xmlns:xlink="http://www.w3.org/1999/xlink" x="0px" y="0px"
	 viewBox="-408 583.5 24 24" style="enable-background:new -408 583.5 24 24;" xml:space="preserve">
<style type="text/css">
	.st0{fill:#003676;}
</style>
<g>
	<path class="st0" d="M-389.1,591.1l-6.2,5.4c-1-0.2-2.1,0.1-2.8,0.9c-1.1,1.2-1,3.1,0.2,4.2c1.2,1.1,3.1,1,4.2-0.2
		c0.7-0.8,0.9-1.9,0.6-2.9l4.6-6.7C-388.4,591.7-389.1,591.1-389.1,591.1z"/>
	<path class="st0" d="M-403.4,600.7h-4.5c0-6.6,5.4-12,12-12c1.7,0,3.4,0.4,4.9,1l-4.2,3.5l-0.7,0
		C-400,593.3-403.4,596.6-403.4,600.7z"/>
	<path class="st0" d="M-383.9,600.7h-4.5c0-1.3-0.3-2.5-0.9-3.6l2.6-4.1C-385,595.1-383.9,597.8-383.9,600.7z"/>
</g>
</svg>
