<?xml version="1.0" encoding="utf-8"?>
<!-- Generator: Adobe Illustrator 19.0.1, SVG Export Plug-In . SVG Version: 6.00 Build 0)  -->
<svg version="1.1" xmlns="http://www.w3.org/2000/svg" xmlns:xlink="http://www.w3.org/1999/xlink" x="0px" y="0px"
	 viewBox="0 0 100 100" style="enable-background:new 0 0 100 100;" xml:space="preserve">
<style type="text/css">
	.st0{display:none;}
	.st1{display:inline;fill:#231F20;}
	.st2{fill:#30449B;}
	.st3{fill:#F1F2F2;}
</style>
<g id="Layer_2" class="st0">
	<rect x="-1" y="-0.8" class="st1" width="102.2" height="101.8"/>
</g>
<g id="Layer_1">
	<g>
		<path class="st2" d="M65.9,48.3c0,8-14.5,21.5-14.5,21.5S36.9,56.4,36.9,48.3s6.5-14.5,14.5-14.5S65.9,40.3,65.9,48.3z"/>
		<g>
			<polygon class="st3" points="53.8,42.9 58.5,42.9 60.8,47.5 58,51.5 			"/>
			<polygon class="st3" points="45.6,42.9 40.8,42.9 47.8,56.9 50.6,52.9 			"/>
			<polygon class="st3" points="40.8,42.9 44.3,45.1 48.1,52.6 47.8,56.9 			"/>
			<polygon class="st3" points="44.3,45.1 45.6,42.9 40.8,42.9 			"/>
			<polygon class="st3" points="47.8,56.9 48.1,52.6 50.6,52.9 			"/>
			<polygon class="st3" points="52.1,42.9 47.3,42.9 54.3,56.9 57.1,52.9 			"/>
			<polygon class="st3" points="47.3,42.9 50.8,45.1 54.6,52.6 54.3,56.9 			"/>
			<polygon class="st3" points="50.8,45.1 52.1,42.9 47.3,42.9 			"/>
			<polygon class="st3" points="54.3,56.9 54.6,52.6 57.1,52.9 			"/>
			<polygon class="st3" points="53.8,42.9 57.4,45.1 58.6,47.5 58,51.5 			"/>
			<polygon class="st3" points="53.8,42.9 57.4,45.1 58.5,42.9 			"/>
			<polygon class="st3" points="58,51.5 58.6,47.5 60.8,47.5 			"/>
		</g>
	</g>
</g>
</svg>
